# xmcd CD database file
#
# Track frame offsets:
#	150
#	14699
#	28013
#	46463
#	64054
#	75071
#	89936
#	106058
#	118394
#	128397
#	143927
#	159887
#
# Disc length: 2270 seconds
#
# Revision: 1
# Processed by: cddbd v1.5.2PL0 Copyright (c) Steve Scherf et al.
# Submitted via: CDex 1.70beta2
#
DISCID=9808dc0c
DTITLE=Wiyos - The Wiyos
DYEAR=2007
DGENRE=Jazz
TTITLE0=Jack and Boon
TTITLE1=Midnight Train
TTITLE2=Dying Crapshooters Blues
TTITLE3=NYC Blues
TTITLE4=Everybody Loves My Baby
TTITLE5=Silver Spoon
TTITLE6=Number Nine
TTITLE7=Side by Side
TTITLE8=I Can't Dance
TTITLE9=Twenty Feet of Water
TTITLE10=Hudson Valley Line
TTITLE11=Caught Us Doing It
EXTD=YEAR: 2007
EXTT0=
EXTT1=
EXTT2=
EXTT3=
EXTT4=
EXTT5=
EXTT6=
EXTT7=
EXTT8=
EXTT9=
EXTT10=
EXTT11=
PLAYORDER=
